<svg width="134" height="135" viewBox="0 0 134 135" fill="none" xmlns="http://www.w3.org/2000/svg">
<g clip-path="url(#clip0)">
<path d="M200 0.800781H0V134.801H200V0.800781Z" fill="white"/>
<path d="M200 0.800781H0V10.9408H200V0.800781Z" fill="#B41F30"/>
<path d="M200 21.4409H0V31.5809H200V21.4409Z" fill="#B41F30"/>
<path d="M200 42.0908H0V52.2308H200V42.0908Z" fill="#B41F30"/>
<path d="M200 83.3809H0V93.5209H200V83.3809Z" fill="#B41F30"/>
<path d="M200 62.731H0V72.871H200V62.731Z" fill="#B41F30"/>
<path d="M200 104.021H0V114.161H200V104.021Z" fill="#B41F30"/>
<path d="M200 124.661H0V134.801H200V124.661Z" fill="#B41F30"/>
<path d="M101.35 0.800781H0V72.7308H101.35V0.800781Z" fill="#3C3A70"/>
<path d="M8.45014 3.7207L9.41014 6.6707H12.5101L10.0001 8.4907L10.9601 11.4307L8.45014 9.6107L5.94014 11.4307L6.90014 8.4907L4.39014 6.6707H7.49014L8.45014 3.7207Z" fill="white"/>
<path d="M8.45014 18.1509L9.41014 21.1009H12.5101L10.0001 22.9209L10.9601 25.8709L8.45014 24.0509L5.94014 25.8709L6.90014 22.9209L4.39014 21.1009H7.49014L8.45014 18.1509Z" fill="white"/>
<path d="M8.45014 32.5908L9.41014 35.5308H12.5101L10.0001 37.3508L10.9601 40.3008L8.45014 38.4808L5.94014 40.3008L6.90014 37.3508L4.39014 35.5308H7.49014L8.45014 32.5908Z" fill="white"/>
<path d="M8.45014 47.0205L9.41014 49.9705H12.5101L10.0001 51.7905L10.9601 54.7305L8.45014 52.9105L5.94014 54.7305L6.90014 51.7905L4.39014 49.9705H7.49014L8.45014 47.0205Z" fill="white"/>
<path d="M8.45014 61.4507L9.41014 64.4007H12.5101L10.0001 66.2207L10.9601 69.1707L8.45014 67.3407L5.94014 69.1707L6.90014 66.2207L4.39014 64.4007H7.49014L8.45014 61.4507Z" fill="white"/>
<path d="M17.02 10.9409L17.98 13.8809H21.07L18.57 15.7009L19.53 18.6509L17.02 16.8309L14.51 18.6509L15.47 15.7009L12.96 13.8809H16.06L17.02 10.9409Z" fill="white"/>
<path d="M17.02 25.3711L17.98 28.3211H21.07L18.57 30.1411L19.53 33.0811L17.02 31.2611L14.51 33.0811L15.47 30.1411L12.96 28.3211H16.06L17.02 25.3711Z" fill="white"/>
<path d="M17.02 39.8008L17.98 42.7508H21.07L18.57 44.5708L19.53 47.5208L17.02 45.6908L14.51 47.5208L15.47 44.5708L12.96 42.7508H16.06L17.02 39.8008Z" fill="white"/>
<path d="M17.02 54.2407L17.98 57.1807H21.07L18.57 59.0007L19.53 61.9507L17.02 60.1307L14.51 61.9507L15.47 59.0007L12.96 57.1807H16.06L17.02 54.2407Z" fill="white"/>
<path d="M25.4304 3.7207L26.3904 6.6707H29.4904L26.9804 8.4907L27.9404 11.4307L25.4304 9.6107L22.9304 11.4307L23.8904 8.4907L21.3804 6.6707H24.4804L25.4304 3.7207Z" fill="white"/>
<path d="M25.4304 18.1509L26.3904 21.1009H29.4904L26.9804 22.9209L27.9404 25.8709L25.4304 24.0509L22.9304 25.8709L23.8904 22.9209L21.3804 21.1009H24.4804L25.4304 18.1509Z" fill="white"/>
<path d="M25.4304 32.5908L26.3904 35.5308H29.4904L26.9804 37.3508L27.9404 40.3008L25.4304 38.4808L22.9304 40.3008L23.8904 37.3508L21.3804 35.5308H24.4804L25.4304 32.5908Z" fill="white"/>
<path d="M25.4304 47.0205L26.3904 49.9705H29.4904L26.9804 51.7905L27.9404 54.7305L25.4304 52.9105L22.9304 54.7305L23.8904 51.7905L21.3804 49.9705H24.4804L25.4304 47.0205Z" fill="white"/>
<path d="M25.4304 61.4507L26.3904 64.4007H29.4904L26.9804 66.2207L27.9404 69.1707L25.4304 67.3407L22.9304 69.1707L23.8904 66.2207L21.3804 64.4007H24.4804L25.4304 61.4507Z" fill="white"/>
<path d="M34.0002 10.9409L34.9602 13.8809H38.0602L35.5502 15.7009L36.5102 18.6509L34.0002 16.8309L31.5002 18.6509L32.4502 15.7009L29.9502 13.8809H33.0502L34.0002 10.9409Z" fill="white"/>
<path d="M34.0002 25.3711L34.9602 28.3211H38.0602L35.5502 30.1411L36.5102 33.0811L34.0002 31.2611L31.5002 33.0811L32.4502 30.1411L29.9502 28.3211H33.0502L34.0002 25.3711Z" fill="white"/>
<path d="M34.0002 39.8008L34.9602 42.7508H38.0602L35.5502 44.5708L36.5102 47.5208L34.0002 45.6908L31.5002 47.5208L32.4502 44.5708L29.9502 42.7508H33.0502L34.0002 39.8008Z" fill="white"/>
<path d="M34.0002 54.2407L34.9602 57.1807H38.0602L35.5502 59.0007L36.5102 61.9507L34.0002 60.1307L31.5002 61.9507L32.4502 59.0007L29.9502 57.1807H33.0502L34.0002 54.2407Z" fill="white"/>
<path d="M42.4203 3.7207L43.3703 6.6707H46.4704L43.9704 8.4907L44.9203 11.4307L42.4203 9.6107L39.9104 11.4307L40.8703 8.4907L38.3604 6.6707H41.4604L42.4203 3.7207Z" fill="white"/>
<path d="M42.4203 18.1509L43.3703 21.1009H46.4704L43.9704 22.9209L44.9203 25.8709L42.4203 24.0509L39.9104 25.8709L40.8703 22.9209L38.3604 21.1009H41.4604L42.4203 18.1509Z" fill="white"/>
<path d="M42.4203 32.5908L43.3703 35.5308H46.4704L43.9704 37.3508L44.9203 40.3008L42.4203 38.4808L39.9104 40.3008L40.8703 37.3508L38.3604 35.5308H41.4604L42.4203 32.5908Z" fill="white"/>
<path d="M42.4203 47.0205L43.3703 49.9705H46.4704L43.9704 51.7905L44.9203 54.7305L42.4203 52.9105L39.9104 54.7305L40.8703 51.7905L38.3604 49.9705H41.4604L42.4203 47.0205Z" fill="white"/>
<path d="M42.4203 61.4507L43.3703 64.4007H46.4704L43.9704 66.2207L44.9203 69.1707L42.4203 67.3407L39.9104 69.1707L40.8703 66.2207L38.3604 64.4007H41.4604L42.4203 61.4507Z" fill="white"/>
<path d="M50.9902 10.9409L51.9402 13.8809H55.0402L52.5302 15.7009L53.4902 18.6509L50.9902 16.8309L48.4802 18.6509L49.4402 15.7009L46.9302 13.8809H50.0302L50.9902 10.9409Z" fill="white"/>
<path d="M50.9902 25.3711L51.9402 28.3211H55.0402L52.5302 30.1411L53.4902 33.0811L50.9902 31.2611L48.4802 33.0811L49.4402 30.1411L46.9302 28.3211H50.0302L50.9902 25.3711Z" fill="white"/>
<path d="M50.9902 39.8008L51.9402 42.7508H55.0402L52.5302 44.5708L53.4902 47.5208L50.9902 45.6908L48.4802 47.5208L49.4402 44.5708L46.9302 42.7508H50.0302L50.9902 39.8008Z" fill="white"/>
<path d="M50.9902 54.2407L51.9402 57.1807H55.0402L52.5302 59.0007L53.4902 61.9507L50.9902 60.1307L48.4802 61.9507L49.4402 59.0007L46.9302 57.1807H50.0302L50.9902 54.2407Z" fill="white"/>
<path d="M59.4001 3.7207L60.3601 6.6707H63.4601L60.9501 8.4907L61.9101 11.4307L59.4001 9.6107L56.9001 11.4307L57.8501 8.4907L55.3501 6.6707H58.4401L59.4001 3.7207Z" fill="white"/>
<path d="M59.4001 18.1509L60.3601 21.1009H63.4601L60.9501 22.9209L61.9101 25.8709L59.4001 24.0509L56.9001 25.8709L57.8501 22.9209L55.3501 21.1009H58.4401L59.4001 18.1509Z" fill="white"/>
<path d="M59.4001 32.5908L60.3601 35.5308H63.4601L60.9501 37.3508L61.9101 40.3008L59.4001 38.4808L56.9001 40.3008L57.8501 37.3508L55.3501 35.5308H58.4401L59.4001 32.5908Z" fill="white"/>
<path d="M59.4001 47.0205L60.3601 49.9705H63.4601L60.9501 51.7905L61.9101 54.7305L59.4001 52.9105L56.9001 54.7305L57.8501 51.7905L55.3501 49.9705H58.4401L59.4001 47.0205Z" fill="white"/>
<path d="M59.4001 61.4507L60.3601 64.4007H63.4601L60.9501 66.2207L61.9101 69.1707L59.4001 67.3407L56.9001 69.1707L57.8501 66.2207L55.3501 64.4007H58.4401L59.4001 61.4507Z" fill="white"/>
<path d="M67.9702 10.9409L68.9302 13.8809H72.0302L69.5202 15.7009L70.4802 18.6509L67.9702 16.8309L65.4602 18.6509L66.4202 15.7009L63.9102 13.8809H67.0102L67.9702 10.9409Z" fill="white"/>
<path d="M67.9702 25.3711L68.9302 28.3211H72.0302L69.5202 30.1411L70.4802 33.0811L67.9702 31.2611L65.4602 33.0811L66.4202 30.1411L63.9102 28.3211H67.0102L67.9702 25.3711Z" fill="white"/>
<path d="M67.9702 39.8008L68.9302 42.7508H72.0302L69.5202 44.5708L70.4802 47.5208L67.9702 45.6908L65.4602 47.5208L66.4202 44.5708L63.9102 42.7508H67.0102L67.9702 39.8008Z" fill="white"/>
<path d="M67.9702 54.2407L68.9302 57.1807H72.0302L69.5202 59.0007L70.4802 61.9507L67.9702 60.1307L65.4602 61.9507L66.4202 59.0007L63.9102 57.1807H67.0102L67.9702 54.2407Z" fill="white"/>
<path d="M76.3901 3.7207L77.3401 6.6707H80.4401L77.9301 8.4907L78.8901 11.4307L76.3901 9.6107L73.8801 11.4307L74.8401 8.4907L72.3301 6.6707H75.4301L76.3901 3.7207Z" fill="white"/>
<path d="M76.3901 18.1509L77.3401 21.1009H80.4401L77.9301 22.9209L78.8901 25.8709L76.3901 24.0509L73.8801 25.8709L74.8401 22.9209L72.3301 21.1009H75.4301L76.3901 18.1509Z" fill="white"/>
<path d="M76.3901 32.5908L77.3401 35.5308H80.4401L77.9301 37.3508L78.8901 40.3008L76.3901 38.4808L73.8801 40.3008L74.8401 37.3508L72.3301 35.5308H75.4301L76.3901 32.5908Z" fill="white"/>
<path d="M76.3901 47.0205L77.3401 49.9705H80.4401L77.9301 51.7905L78.8901 54.7305L76.3901 52.9105L73.8801 54.7305L74.8401 51.7905L72.3301 49.9705H75.4301L76.3901 47.0205Z" fill="white"/>
<path d="M76.3901 61.4507L77.3401 64.4007H80.4401L77.9301 66.2207L78.8901 69.1707L76.3901 67.3407L73.8801 69.1707L74.8401 66.2207L72.3301 64.4007H75.4301L76.3901 61.4507Z" fill="white"/>
<path d="M84.9499 10.9409L85.9099 13.8809H89.0099L86.4999 15.7009L87.4599 18.6509L84.9499 16.8309L82.4499 18.6509L83.4099 15.7009L80.8999 13.8809H83.9999L84.9499 10.9409Z" fill="white"/>
<path d="M84.9499 25.3711L85.9099 28.3211H89.0099L86.4999 30.1411L87.4599 33.0811L84.9499 31.2611L82.4499 33.0811L83.4099 30.1411L80.8999 28.3211H83.9999L84.9499 25.3711Z" fill="white"/>
<path d="M84.9499 39.8008L85.9099 42.7508H89.0099L86.4999 44.5708L87.4599 47.5208L84.9499 45.6908L82.4499 47.5208L83.4099 44.5708L80.8999 42.7508H83.9999L84.9499 39.8008Z" fill="white"/>
<path d="M84.9499 54.2407L85.9099 57.1807H89.0099L86.4999 59.0007L87.4599 61.9507L84.9499 60.1307L82.4499 61.9507L83.4099 59.0007L80.8999 57.1807H83.9999L84.9499 54.2407Z" fill="white"/>
<path d="M93.3701 3.7207L94.3301 6.6707H97.4201L94.9201 8.4907L95.8801 11.4307L93.3701 9.6107L90.8601 11.4307L91.8201 8.4907L89.3101 6.6707H92.4101L93.3701 3.7207Z" fill="white"/>
<path d="M93.3701 18.1509L94.3301 21.1009H97.4201L94.9201 22.9209L95.8801 25.8709L93.3701 24.0509L90.8601 25.8709L91.8201 22.9209L89.3101 21.1009H92.4101L93.3701 18.1509Z" fill="white"/>
<path d="M93.3701 32.5908L94.3301 35.5308H97.4201L94.9201 37.3508L95.8801 40.3008L93.3701 38.4808L90.8601 40.3008L91.8201 37.3508L89.3101 35.5308H92.4101L93.3701 32.5908Z" fill="white"/>
<path d="M93.3701 47.0205L94.3301 49.9705H97.4201L94.9201 51.7905L95.8801 54.7305L93.3701 52.9105L90.8601 54.7305L91.8201 51.7905L89.3101 49.9705H92.4101L93.3701 47.0205Z" fill="white"/>
<path d="M93.3701 61.4507L94.3301 64.4007H97.4201L94.9201 66.2207L95.8801 69.1707L93.3701 67.3407L90.8601 69.1707L91.8201 66.2207L89.3101 64.4007H92.4101L93.3701 61.4507Z" fill="white"/>
</g>
<defs>
<clipPath id="clip0">
<rect y="0.800781" width="134" height="134" fill="white"/>
</clipPath>
</defs>
</svg>
